<?xml version="1.0" encoding="utf-8"?>
<!-- Generator: Adobe Illustrator 21.0.2, SVG Export Plug-In . SVG Version: 6.00 Build 0)  -->
<!DOCTYPE svg PUBLIC "-//W3C//DTD SVG 1.1//EN" "http://www.w3.org/Graphics/SVG/1.1/DTD/svg11.dtd">
<svg version="1.1" id="Layer_1" xmlns="http://www.w3.org/2000/svg" xmlns:xlink="http://www.w3.org/1999/xlink" x="0px" y="0px"
	 viewBox="-361 1278.1 1216 334.9" enable-background="new -361 1278.1 1216 334.9" xml:space="preserve">
<rect x="-361" y="1278.1" fill="#FF0000" width="1216" height="334.9"/>
<path display="none" fill="#CC3333" d="M599.1,1496.2c0,0.2,0.3,6.6,6.1,17c6.4,11.5,19.3,19.7,30.3,24.7c7.1,3.2,13.3,5.4,19.2,6.6
	c5.7,1.2,11.3,1.8,16.7,1.8h0.6c10,0,20-2,29.7-5.9c0.7-0.3,1.3-0.6,1.9-1c12.1,4.6,25.2,6.9,39.1,6.9c24.9,0,44.5-6.8,58.4-20.3
	c14-13.6,21.4-30.8,21.4-49.9c0-11.4-2.3-21.7-6.8-31c21.3-4.5,37.4-23.5,37.4-46.2c0-26-21.2-47.2-47.2-47.2
	c-7.1,0-13.8,1.6-19.9,4.4c-12.6-4.9-25.5-7.3-38.5-7.3c-15.1,0-28.3,2.7-39.4,8c-5.2-3.7-11.6-6-18.5-6h-2.6v-6.7
	c0-17.6-14.2-31.8-31.8-31.8h-23.6c-17.6,0-31.8,14.2-31.8,31.8v4.8c-22.7,0.7-46.1,5.7-69.6,15.1c-1.6,0.6-3.1,1.4-4.6,2.3
	c-15.1-11.6-34.4-17.5-57.5-17.5c-17.6,0-34.6,3.1-50.4,9.1c-4.9,1.9-9.1,4.9-12.4,8.7c-11.2-9.2-28.4-17.7-53.5-17.7
	c-0.8,0-1.6,0-2.4,0V1333c0-17.6-14.2-31.8-31.8-31.8H294c-17.6,0-31.8,14.2-31.8,31.8v17.6c-7.1-1.2-14.4-1.8-21.7-1.8
	c-30,0-49.6,10.4-61.9,21.2c0,0,0,0,0,0c-15.2-14.2-35.3-21.4-59.9-21.4c-14.6,0-29.6,2.3-44.7,6.9c-11.1-4.6-23.5-6.9-37.3-6.9
	c-8.8,0-17.5,0.8-26.1,2.3C-8.4,1326.3-38.1,1311-70,1311c-7.1,0-14.2,0.8-21.2,2.2c-25.8,5.5-47.9,20.4-62.6,41.5
	c-1.7-0.1-3.4-0.1-5.1-0.1c-8.1,0-16.2,0.9-24.1,2.5c-8.3,1.8-16.2,4.4-23.7,7.8c-5.7-8.5-15.4-14-26.4-14h-94.6
	c-17.6,0-31.8,14.2-31.8,31.8v21.8c0,17.5,14.2,31.7,31.6,31.8l-26.6,34.8c-4.2,5.5-6.5,12.3-6.5,19.3v22.1
	c0,17.6,14.2,31.8,31.8,31.8h79c21.8,27.7,55.2,44.2,91,44.2c8.1,0,16.2-0.9,24.1-2.5c38.4-8.2,69.8-35.5,84.1-71.3
	c0.7-0.1,2.2-0.5,2.4-0.5c0.9,16.8,14.8,30.1,31.7,30.1H6.7c13,0,24.1-7.8,29.1-18.9c4.9,11.2,16.1,18.9,29.1,18.9h23.6
	c13.1,0,24.3-7.9,29.2-19.2c4.9,11.3,16.1,19.2,29.2,19.2h23.6c8.7,0,16.6-3.5,22.3-9.2c11.7,6.4,27.3,11.2,47.6,11.2
	c13.2,0,26.2-1.9,38.8-5.6c4.4,2.3,9.4,3.6,14.7,3.6h23.6c14.4,0,26.6-9.6,30.5-22.7c3.9,13.1,16.1,22.7,30.5,22.7h24.2
	c8.1,0,15.5-3.1,21.1-8c3.6,1.7,7.5,3.3,11.8,4.8c10.4,3.5,22.3,5.3,35.2,5.3c12.6,0,24.2-1.7,34.5-5.1c5.4-1.8,10.2-3.8,14.5-6.1
	c5.7,5.6,13.6,9.1,22.3,9.1h23.6c17.6,0,33.6-14.2,33.6-31.8l-0.3-16.1"/>
<g>
	<path fill="#FFFFFF" d="M221.3,1484.6c3.5,2.7,7,4.5,10.6,5.4c3.6,0.9,7.8,1.4,12.8,1.4c11,0,21.7-2.5,32-7.4v20
		c-10.9,4.2-22.1,6.4-33.8,6.4c-17.5,0-30.7-5.1-39.8-15.3c-9.1-10.2-13.7-24.9-13.7-44.2c0-19.3,4.6-34.1,13.7-44.2
		c9.1-10.2,22.4-15.3,39.8-15.3c11.7,0,23,2.1,33.8,6.4v20.1c-10.4-5.1-20.9-7.6-31.6-7.6c-0.2,0-0.3,0-0.4,0
		c-10.6,0-18.8,2.7-24.8,8.2c-6,5.5-9,16.2-9,32.3c0,8.5,0.9,15.6,2.6,21.2C215.2,1477.7,217.8,1481.9,221.3,1484.6L221.3,1484.6z
		 M365.5,1508.6v-68.8c0-11.3-2.4-18.9-7.1-22.6c-4.8-3.8-11-5.7-18.6-5.7c-9.4,0-18.8,1.8-28.4,5.5v91.5h-21v-159.5h21v48
		c9.8-3.8,20-5.7,30.4-5.7c14.3,0,25.4,4.3,33.3,12.8c7.9,8.5,11.9,20.7,11.9,36.4v67.9L365.5,1508.6L365.5,1508.6z M494.6,1480.4
		c-0.5,2.4-1.7,5.6-3.5,9.4c-1.8,3.8-4.3,7.2-7.5,10c-3.2,2.9-7.9,5.3-14.2,7.4c-6.3,2.1-13.6,3.1-21.9,3.1
		c-8.5,0-15.9-1.1-22.3-3.2c-6.4-2.2-11.2-4.7-14.4-7.5c-3.2-2.9-5.8-6.3-7.7-10.2c-1.9-3.9-3.1-7.2-3.5-9.7
		c-0.5-2.6-0.7-5.1-0.7-7.6c0-11.4,4.8-20.3,14.4-26.7c9.6-6.4,22.8-9.6,39.7-9.6c7.2,0,14.1,0.5,20.9,1.4
		c-0.5-9.7-3.1-16.7-7.9-20.9c-4.8-4.2-12.7-6.3-23.7-6.3c-10,0-20.6,1.9-31.8,5.8v-18.1c10.9-4.1,22.4-6.2,34.7-6.2
		c16,0,28.4,4.2,37.1,12.5c8.7,8.3,13.1,20.3,13.1,35.8v33.3C495.3,1475.5,495.1,1478,494.6,1480.4L494.6,1480.4z M473.9,1454.1
		c-5.5-0.9-12.2-1.4-20-1.5c-3.1,0-6.3,0.3-9.6,0.8c-3.4,0.6-7,1.4-10.9,2.6c-3.9,1.2-7.1,3.2-9.6,5.9c-2.5,2.8-3.8,6.1-3.8,9.9
		c0,13,9.2,19.5,27.6,19.5c0.1,0,0.2,0,0.3,0c17.3,0,26-6.2,26-18.7L473.9,1454.1L473.9,1454.1z M531.9,1415.7v92.9h-21v-105.6
		c19.2-7.7,37.8-11.5,56-11.5v19.4C555.4,1411,543.7,1412.6,531.9,1415.7L531.9,1415.7z M628.4,1491.4c0.1,0,0.1,0,0.2,0
		c5.2,0,9.7-1.1,13.4-3.4v19.1c-5.2,2.1-10.5,3.2-15.7,3.2c-0.2,0-0.3,0-0.6,0c-2.8,0-5.7-0.3-8.9-1c-3.1-0.7-6.9-2-11.3-4
		c-4.4-2-8-5.4-10.8-10.4c-2.8-4.9-4.3-11-4.3-18.3v-65.4h-20v-18.1h20V1359h21v34.2H642v18.1h-30.6v66.7
		C611.4,1486.9,617.1,1491.4,628.4,1491.4L628.4,1491.4z M679.3,1433.2c4,2.1,8.9,4,14.6,5.6c5.7,1.6,11.4,3.6,17.1,5.9
		c5.7,2.3,10.6,6.1,14.7,11.5c4.1,5.4,6.1,12.1,6.1,20c0,9.3-3.5,17.3-10.4,24.1c-6.9,6.7-17.7,10.1-32.3,10.1
		c-12.3,0-23.3-2.7-33.1-8.1V1483c10,5.6,20.6,8.4,31.8,8.4c0.1,0,0.3,0,0.5,0c7.3,0,12.9-1.3,16.8-4c3.9-2.7,5.8-6.1,5.8-10.2
		c0-4.7-2-8.5-6-11.4c-4-2.9-8.9-5.1-14.7-6.8c-5.8-1.6-11.5-3.4-17.2-5.4c-5.7-2-10.6-5.3-14.6-9.9c-4-4.6-6-10.6-6-18
		c0-9.5,3.4-17.7,10.2-24.4c6.8-6.7,17.1-10,31.1-10c10.4,0,20.6,2.5,30.7,7.6v18.3c-9.9-4.6-19.3-6.9-28.1-6.9
		c-15.2,0-22.8,4.9-22.8,14.7C673.2,1428.4,675.3,1431,679.3,1433.2L679.3,1433.2z"/>
	<path fill="#FFFFFF" d="M-63.4,1472.9c0,25.4-20.9,46.7-46.7,46.7c-0.1,0,0-47.1,0-47.1C-109.6,1473-63.4,1472.8-63.4,1472.9
		L-63.4,1472.9z"/>
	<path fill="#FFFFFF" d="M159.7,1508.6V1433c0-6.6-1.6-12-4.8-16c-3.2-4.1-9.5-6.1-18.9-6.1c-10.1,0-20.4,2.1-30.8,6.4
		c1.8,4.9,2.7,10.4,2.7,16.5c0,0.2,0,0.5,0,0.7v74.2h-21v-75.4c0-6.8-1.8-12.1-5.3-16c-3.6-3.9-10.6-5.9-21.2-5.9
		c-8.2,0-16.6,1.2-25.1,3.5v93.8h-21v-46.4c-8.6,10.1-20.5,17.5-34.4,20.4c-6,1.3-11.9,1.6-17.7,1.2c-4.6,30.2-27.3,55.8-58.8,62.5
		c-33.2,7.1-65.9-9.2-81.4-37.7h-85.3v-19.6l58.4-76.3h-57.1v-19.4h84v19.2l-58.2,76.1h50.7c0-0.2-0.1-0.4-0.1-0.6
		c-8.5-40.9,17.4-81,58-89.6c12.2-2.6,24.4-2,35.7,1.1c7.2-19.8,24-35.5,45.9-40.2c30.4-6.5,60.3,10.5,71.2,38.7
		c11.9-4.5,24.1-6.7,36.7-6.7c12.4,0,22.7,2.9,30.7,8.7c14.4-5.8,28.5-8.7,42.1-8.7c14.5,0,25.8,3.8,33.9,11.4
		c8.1,7.6,12.2,18.2,12.2,31.8v74.2L159.7,1508.6L159.7,1508.6z M-32.2,1377.1c-24.5,0-44.4,19.9-44.4,44.4c0,2.3,0.2,4.6,0.5,6.8
		c-9.4-7.2-21.2-11.5-34-11.5c-31,0-56.1,25.1-56.1,56.1s25.1,56.1,56.1,56.1s56.1-25.1,56.1-56.1c0-4.7-0.6-9.4-1.7-13.8
		c6.8,4.2,14.8,6.7,23.4,6.7c24.5,0,44.4-19.9,44.4-44.4C12.1,1397-7.7,1377.1-32.2,1377.1L-32.2,1377.1z"/>
	<g>
		<path fill="#FFFFFF" d="M745.3,1394c-7.5,0-13.7,6.1-13.7,13.7c0,7.5,6.1,13.7,13.7,13.7c7.5,0,13.7-6.1,13.7-13.7
			C759,1400.1,752.9,1394,745.3,1394z M745.3,1418.6c-6,0-10.9-4.9-10.9-10.9s4.9-10.9,10.9-10.9s10.9,4.9,10.9,10.9
			S751.3,1418.6,745.3,1418.6z"/>
		<path fill="#FFFFFF" d="M749,1408.6c-0.4-0.4-0.8-0.7-1.4-0.8c0.9-0.3,1.6-0.7,2.1-1.3c0.5-0.6,0.7-1.4,0.7-2.3
			c0-1.4-0.4-2.4-1.3-3c-0.9-0.6-2.3-1-4.1-1h-5.6v14.3h3.7v-5.4h1c0.6,0,1.1,0.1,1.4,0.4c0.4,0.3,0.7,0.8,1.1,1.5l1.8,3.6h3.9
			l-2-4.1C749.8,1409.6,749.4,1409,749,1408.6z M746.2,1406.1c-0.3,0.3-0.9,0.4-1.7,0.4H743v-3.7h1.6c0.8,0,1.3,0.1,1.7,0.4
			c0.3,0.3,0.5,0.8,0.5,1.4C746.7,1405.4,746.6,1405.8,746.2,1406.1z"/>
	</g>
</g>
</svg>
